<?xml version="1.0" encoding="UTF-8" standalone="no"?>
<svg
   id="svg"
   width="401.38232"
   height="68.294769"
   viewBox="0 0 401.38232 68.294768"
   version="1.1"
   sodipodi:docname="seer_logo.svg"
   inkscape:export-filename="seer_logo.png"
   inkscape:export-xdpi="300"
   inkscape:export-ydpi="300"
   inkscape:version="1.2.2 (b0a84865, 2022-12-01)"
   xmlns:inkscape="http://www.inkscape.org/namespaces/inkscape"
   xmlns:sodipodi="http://sodipodi.sourceforge.net/DTD/sodipodi-0.dtd"
   xmlns="http://www.w3.org/2000/svg"
   xmlns:svg="http://www.w3.org/2000/svg">
  <defs
     id="defs137">
    <filter
       inkscape:collect="always"
       style="color-interpolation-filters:sRGB"
       id="filter880"
       x="-0.01752668"
       y="-0.12424992"
       width="1.0350534"
       height="1.2484998">
      <feGaussianBlur
         inkscape:collect="always"
         stdDeviation="2.831939"
         id="feGaussianBlur882" />
    </filter>
  </defs>
  <sodipodi:namedview
     id="namedview135"
     pagecolor="#505050"
     bordercolor="#ffffff"
     borderopacity="1"
     inkscape:showpageshadow="0"
     inkscape:pageopacity="0"
     inkscape:pagecheckerboard="1"
     inkscape:deskcolor="#505050"
     showgrid="false"
     inkscape:zoom="2.3033952"
     inkscape:cx="209.69046"
     inkscape:cy="62.733481"
     inkscape:window-width="1680"
     inkscape:window-height="997"
     inkscape:window-x="0"
     inkscape:window-y="25"
     inkscape:window-maximized="0"
     inkscape:current-layer="svg" />
  <path
     id="path0-9"
     d="m 52.991654,6.9594727 c -15.556,2.79 -31.356,11.6050003 -43.8590001,24.4690003 l -2.336,2.404 1.895,2 C 21.292654,49.132471 35.803654,57.902471 50.117654,60.867471 c 2.71,0.561 4.419,0.791 3.807,0.512 -6.5,-2.97 -10.263,-6.081 -13.649,-11.283 -9.777,-15.018998 -3.866,-35.303998 12.428,-42.6489983 1.482,-0.668 1.505,-0.706 0.288,-0.488 m 114.079996,-0.06 c -9.583,0.866 -15.518,7.3000003 -15.119,16.3880003 0.325,7.391 3.318,10.462 14.257,14.633 5.933,2.262 7.088,3.148 7.348,5.638998 0.655,6.268 -6.432,8.001 -19.102,4.67 -0.775,-0.203 -1.427,-0.347 -1.45,-0.318 -0.037,0.047 -2.398,9.814 -2.439,10.089 -0.087,0.591 7.391,2.489 11.166,2.835 15.607,1.43 24.971,-5.27 24.619,-17.614 -0.232,-8.136998 -2.774,-10.863998 -14.455,-15.507998 -6.727,-2.675 -7.531,-3.353 -7.518,-6.348 0.02,-4.897 6.97,-6.37 14.905,-3.158 1.188,0.48 1.307,0.503 1.47,0.281 0.23,-0.315 4.781,-8.483 4.781,-8.5820003 0,-0.203 -5.3,-1.773 -7.844,-2.323 -3.091,-0.669 -7.589,-0.958 -10.619,-0.684 m -91.881996,0.215 c 22.727,10.4140003 24.05,41.3109983 2.265,52.9169983 -1.689,0.9 -1.668,0.921 0.43,0.426 14.227,-3.356 29.340996,-12.093 41.593996,-24.043998 1.165,-1.137 2.119,-2.147 2.119,-2.245 0,-0.227 -3.321,-3.456 -6.109,-5.94 -12.957,-11.545 -26.590996,-18.7220003 -40.298996,-21.2130003 l -0.359,-0.065 0.359,0.164 m 288.145996,-0.009 c -2.071,0.116 -7.19,0.617 -8.01,0.785 l -0.396,0.081 0.037,26.1020003 0.036,26.101998 6.141,0.037 6.142,0.038 0.037,-12.144 0.036,-12.143998 6.913,12.034998 6.913,12.034 6.701,0.037 c 3.685,0.021 6.7,-0.001 6.7,-0.049 0,-0.131 -2.128,-3.727 -7.715,-13.038 -2.79,-4.648 -5.072,-8.473998 -5.072,-8.500998 0,-0.027 0.436,-0.369 0.97,-0.76 5.515,-4.039 8.136,-10.365 7.075,-17.075 -1.544,-9.755 -10.686,-14.4250003 -26.508,-13.5400003 m -141.738,26.7770003 v 26.365998 l 15.625,-0.037 15.625,-0.036 0.038,-5.209 0.037,-5.208 h -9.79 -9.791 l 0.089,-0.539 c 0.049,-0.296 0.09,-2.947 0.091,-5.891 l 0.001,-5.351998 h 7.471 7.472 v -5.316 -5.316 h -7.472 -7.471 l -0.026,-4.382 c -0.014,-2.41 -0.03,-4.528 -0.035,-4.705 l -0.011,-0.324 8.105,-0.071 8.104,-0.072 1.326,-4.67 c 0.729,-2.568 1.371,-4.8800003 1.426,-5.1360003 l 0.099,-0.467 h -15.456 -15.457 V 33.882473 m 66.667,0 v 26.365998 l 15.625,-0.037 15.625,-0.036 0.037,-5.209 0.038,-5.208 h -9.792 -9.792 l 0.091,-0.754 c 0.05,-0.415 0.091,-3.065 0.092,-5.89 l 10e-4,-5.134998 7.435,-0.037 7.435,-0.037 v -5.245 -5.244 l -7.435,-0.037 -7.435,-0.037 v -4.074 c 0,-2.24 -0.041,-4.373 -0.092,-4.74 l -0.091,-0.666 h 8.133 8.134 l 0.232,-0.827 c 0.128,-0.454 0.579,-2.022 1.003,-3.484 0.77,-2.66 1.646,-5.8340003 1.646,-5.9650003 0,-0.038 -6.95,-0.069 -15.445,-0.069 h -15.445 V 33.882473 m 83.345,-16.387 c 6.954,1.331 8.557,9.738 2.714,14.235 -1.187,0.913 -6.43,3.66 -6.986,3.66 -0.028,0 -0.051,-4.073 -0.051,-9.051 v -9.052 h 1.617 c 0.889,0 2.106,0.094 2.706,0.208 m -310.266996,1.021 c -12.257,2.435 -17.055,17.453 -8.466,26.498998 9.825,10.349 27.075,3.443 27.093,-10.845998 0.012,-9.982 -9.011,-17.564 -18.627,-15.653"
     stroke="none"
     fill="#000000"
     fill-rule="evenodd"
     style="opacity:0.7;mix-blend-mode:normal;fill:#ffffff;filter:url(#filter880)" />
  <path
     id="path0"
     d="m 52.991654,6.9594707 c -15.556,2.79 -31.356,11.6050003 -43.8590001,24.4690003 l -2.336,2.404 1.895,2 c 12.6010001,13.3 27.1120001,22.07 41.4260001,25.035 2.71,0.561 4.419,0.791 3.807,0.512 -6.5,-2.97 -10.263,-6.081 -13.649,-11.283 -9.777,-15.019 -3.866,-35.304 12.428,-42.6490003 1.482,-0.668 1.505,-0.706 0.288,-0.488 m 114.079996,-0.06 c -9.583,0.866 -15.518,7.3000003 -15.119,16.3880003 0.325,7.391 3.318,10.462 14.257,14.633 5.933,2.262 7.088,3.148 7.348,5.639 0.655,6.268 -6.432,8.001 -19.102,4.67 -0.775,-0.203 -1.427,-0.347 -1.45,-0.318 -0.037,0.047 -2.398,9.814 -2.439,10.089 -0.087,0.591 7.391,2.489 11.166,2.835 15.607,1.43 24.971,-5.27 24.619,-17.614 -0.232,-8.137 -2.774,-10.864 -14.455,-15.508 -6.727,-2.675 -7.531,-3.353 -7.518,-6.348 0.02,-4.897 6.97,-6.37 14.905,-3.158 1.188,0.48 1.307,0.503 1.47,0.281 0.23,-0.315 4.781,-8.483 4.781,-8.5820003 0,-0.203 -5.3,-1.773 -7.844,-2.323 -3.091,-0.669 -7.589,-0.958 -10.619,-0.684 m -91.881996,0.215 c 22.727,10.4140003 24.05,41.3110003 2.265,52.9170003 -1.689,0.9 -1.668,0.921 0.43,0.426 14.227,-3.356 29.340996,-12.093 41.593996,-24.044 1.165,-1.137 2.119,-2.147 2.119,-2.245 0,-0.227 -3.321,-3.456 -6.109,-5.94 -12.957,-11.545 -26.590996,-18.7220003 -40.298996,-21.2130003 l -0.359,-0.065 0.359,0.164 m 288.145996,-0.009 c -2.071,0.116 -7.19,0.617 -8.01,0.785 l -0.396,0.081 0.037,26.1020003 0.036,26.102 6.141,0.037 6.142,0.038 0.037,-12.144 0.036,-12.144 6.913,12.035 6.913,12.034 6.701,0.037 c 3.685,0.021 6.7,-0.001 6.7,-0.049 0,-0.131 -2.128,-3.727 -7.715,-13.038 -2.79,-4.648 -5.072,-8.474 -5.072,-8.501 0,-0.027 0.436,-0.369 0.97,-0.76 5.515,-4.039 8.136,-10.365 7.075,-17.075 -1.544,-9.755 -10.686,-14.4250003 -26.508,-13.5400003 m -141.738,26.7770003 v 26.366 l 15.625,-0.037 15.625,-0.036 0.038,-5.209 0.037,-5.208 h -9.79 -9.791 l 0.089,-0.539 c 0.049,-0.296 0.09,-2.947 0.091,-5.891 l 0.001,-5.352 h 7.471 7.472 v -5.316 -5.316 h -7.472 -7.471 l -0.026,-4.382 c -0.014,-2.41 -0.03,-4.528 -0.035,-4.705 l -0.011,-0.324 8.105,-0.071 8.104,-0.072 1.326,-4.67 c 0.729,-2.568 1.371,-4.8800003 1.426,-5.1360003 l 0.099,-0.467 h -15.456 -15.457 V 33.882471 m 66.667,0 v 26.366 l 15.625,-0.037 15.625,-0.036 0.037,-5.209 0.038,-5.208 h -9.792 -9.792 l 0.091,-0.754 c 0.05,-0.415 0.091,-3.065 0.092,-5.89 l 10e-4,-5.135 7.435,-0.037 7.435,-0.037 v -5.245 -5.244 l -7.435,-0.037 -7.435,-0.037 v -4.074 c 0,-2.24 -0.041,-4.373 -0.092,-4.74 l -0.091,-0.666 h 8.133 8.134 l 0.232,-0.827 c 0.128,-0.454 0.579,-2.022 1.003,-3.484 0.77,-2.66 1.646,-5.8340003 1.646,-5.9650003 0,-0.038 -6.95,-0.069 -15.445,-0.069 h -15.445 V 33.882471 m 83.345,-16.387 c 6.954,1.331 8.557,9.738 2.714,14.235 -1.187,0.913 -6.43,3.66 -6.986,3.66 -0.028,0 -0.051,-4.073 -0.051,-9.051 v -9.052 h 1.617 c 0.889,0 2.106,0.094 2.706,0.208 m -310.266996,1.021 c -12.257,2.435 -17.055,17.453 -8.466,26.499 9.825,10.349 27.075,3.443 27.093,-10.846 0.012,-9.982 -9.011,-17.564 -18.627,-15.653"
     stroke="none"
     fill="#000000"
     fill-rule="evenodd"
     style="fill:#000000" />
</svg>
